#!OML:ASF E:\Mandelcareful walks\Project 1\Capture day 1\Session 1\Subject1.ASF
:FULLY-SPECIFIED
:DEGREES
652
root -18.407 15.9081 1.53362 524.282 84.4175 502.674
lowerback 19.3267 -0.454169 3.2654
upperback 4.99753 0.294154 -0.819391
thorax -5.39598 0.24617 -2.81694
lowerneck -32.0266 9.63187 3.79009
upperneck 18.564 16.2861 -15.5166
head 13.3021 5.49178 -3.16143
rclavicle -1.82882e-014 2.10712e-014
rhumerus -8.37919 22.2927 -78.5716
rradius 33.2424
rwrist -4.66755
rhand -11.8531 -30.9539
rfingers 7.12502
rthumb 14.1985 -60.4486
lclavicle -1.82882e-014 2.10712e-014
lhumerus -15.5782 -42.3104 77.6165
lradius 69.2933
lwrist 13.8477
lhand -16.8263 341.951
lfingers 7.12502
lthumb 9.40298 11.721
rfemur -42.3591 -14.4437 10.8851
rtibia 44.8283
rfoot -18.7045 -9.34069
rtoes -8.44192
lfemur -44.6912 11.1748 -9.76073
ltibia 28.755
lfoot -7.75871 14.2571
ltoes -13.9486
653
root -18.3415 15.9154 1.41482 527.696 84.5057 506.353
lowerback 19.4112 -0.431935 3.16915
upperback 4.96073 0.304202 -0.858894
thorax -5.47979 0.249341 -2.8082
lowerneck -31.7404 9.89244 4.1306
upperneck 18.5669 16.4305 -15.3467
head 13.2707 5.61084 -3.12136
rclavicle -3.97569e-016 1.39149e-014
rhumerus -8.45616 21.0331 -78.4319
rradius 33.7481
rwrist -5.59439
rhand -11.3611 -31.2336
rfingers 7.12502
rthumb 14.6726 -60.6945
lclavicle -3.97569e-016 1.39149e-014
lhumerus -15.14 -41.3736 77.2498
lradius 69.3986
lwrist 12.9084
lhand -17.0438 341.182
lfingers 7.12502
lthumb 9.19306 10.9619
rfemur -41.258 -14.3882 10.6849
rtibia 44.1042
rfoot -18.5375 -9.53049
rtoes -9.3322
lfemur -44.478 11.0302 -9.64248
ltibia 29.3591
lfoot -7.12897 13.8223
ltoes -13.1773
654
root -18.2644 15.9343 1.2908 529.726 84.1088 508.899
lowerback 19.581 -0.55521 2.86492
upperback 5.09332 0.0984229 -0.929456
thorax -5.44206 0.160498 -2.66288
lowerneck -31.7549 10.1649 4.35667
upperneck 18.7544 16.6424 -15.0652
head 13.3522 5.73653 -3.00176
rclavicle -9.93923e-015 5.1684e-015
rhumerus -8.57246 19.5827 -78.2982
rradius 34.4956
rwrist -7.05473
rhand -10.9055 -31.5778
rfingers 7.12502
rthumb 15.1115 -61.0062
lclavicle -9.93923e-015 5.1684e-015
lhumerus -14.5247 -40.1256 76.8931
lradius 69.3759
lwrist 12.3299
lhand -17.2521 340.849
lfingers 7.12502
lthumb 8.99207 10.6374
rfemur -39.6141 -14.6754 10.1159
rtibia 43.3623
rfoot -18.5999 -9.68644
rtoes -10.1262
lfemur -44.1795 10.735 -9.93467
ltibia 30.0345
lfoot -6.9913 13.3663
ltoes -10.1545
655
root -18.1953 15.9465 1.15948 530.815 84.0056 510.048
lowerback 20.1148 -0.712148 2.76726
upperback 4.64625 -0.161279 -1.38805
thorax -6.22304 0.00653277 -3.04612
lowerneck -31.9766 10.5738 4.76774
upperneck 19.499 16.8689 -14.2402
head 13.6415 5.8994 -2.70135
rclavicle 3.12092e-014 2.08724e-014
rhumerus -9.63901 17.8412 -79.0672
rradius 35.8141
rwrist -9.35615
rhand -8.75108 -34.2038
rfingers 7.12502
rthumb 17.186 -63.4638
lclavicle 3.12092e-014 2.08724e-014
lhumerus -14.7574 -38.8696 76.5048
lradius 69.3104
lwrist 12.331
lhand -17.6544 341.032
lfingers 7.12502
lthumb 8.6039 10.837
rfemur -38.6766 -14.7947 9.60091
rtibia 42.6182
rfoot -18.466 -9.77748
rtoes -11.2027
lfemur -44.4517 10.8087 -10.3948
ltibia 30.7681
lfoot -6.33522 12.9424
ltoes -9.83346
656
root -18.1259 15.9555 1.0324 532.374 83.953 511.45
lowerback 19.6282 -0.495917 1.78103
upperback 4.65469 -0.0758997 -1.14403
thorax -5.9503 0.0631173 -2.23567
lowerneck -31.6674 10.6852 4.73339
upperneck 19.3297 17.0028 -14.2014
head 13.5208 5.98673 -2.65443
rclavicle 1.21259e-014 -7.95139e-015
rhumerus -10.0562 16.2012 -78.4796
rradius 37.4227
rwrist -11.9837
rhand -5.43852 -38.9233
rfingers 7.12502
rthumb 20.372 -67.8748
lclavicle 1.21259e-014 -7.95139e-015
lhumerus -13.959 -36.9164 76.8243
lradius 68.7918
lwrist 12.3321
lhand -17.7316 341.342
lfingers 7.12502
lthumb 8.52937 11.1493
rfemur -38.0366 -14.7343 9.17298
rtibia 41.857
rfoot -18.2085 -10.1437
rtoes -12.5831
lfemur -45.0073 11.0874 -10.8996
ltibia 31.5764
lfoot -5.61041 12.6301
ltoes -11.0885
657
root -18.0513 15.9623 0.898118 533.6 83.9267 512.447
lowerback 18.8855 -0.316576 1.12508
upperback 4.71383 0.014844 -1.18318
thorax -5.48937 0.117401 -1.91797
lowerneck -31.4941 10.7068 4.68909
upperneck 19.1919 16.9484 -13.9742
head 13.3903 6.00583 -2.57763
rclavicle 0 -1.5704e-014
rhumerus -10.4638 14.2225 -78.3238
rradius 38.4919
rwrist -14.0893
rhand -12.0699 -32.6076
rfingers 7.12502
rthumb 13.9896 -62.1169
lclavicle 0 -1.5704e-014
lhumerus -13.0082 -34.9378 76.8774
lradius 68.2208
lwrist 12.2697
lhand -17.421 342.145
lfingers 7.12502
lthumb 8.82912 11.9403
rfemur -37.4377 -14.5205 8.65996
rtibia 41.0877
rfoot -17.946 -10.6738
rtoes -13.2841
lfemur -45.6132 11.486 -11.5636
ltibia 32.4752
lfoot -5.38624 12.176
ltoes -11.0365
658
root -17.9745 15.9692 0.751717 536.026 83.8424 514.683
lowerback 18.58 -0.233568 0.722485
upperback 4.47727 0.0232945 -1.22981
thorax -5.58047 0.115667 -1.73894
lowerneck -31.1847 10.728 4.65664
upperneck 19.3568 16.8884 -13.5639
head 13.3351 6.03359 -2.4413
rclavicle -1.69961e-014 -1.59028e-014
rhumerus -11.4588 12.4364 -78.3938
rradius 39.4406
rwrist -16.1419
rhand -12.7507 -32.3531
rfingers 7.12502
rthumb 13.3335 -61.9065
lclavicle -1.69961e-014 -1.59028e-014
lhumerus -12.9254 -32.699 77.476
lradius 67.8435
lwrist 12.0789
lhand -17.539 342.835
lfingers 7.12502
lthumb 8.7152 12.635
rfemur -36.6933 -14.2795 8.19459
rtibia 40.2759
rfoot -17.5991 -11.1635
rtoes -13.5939
lfemur -46.2075 11.9551 -12.2737
ltibia 33.4173
lfoot -5.25162 11.3122
ltoes -13.1219
659
root -17.8986 15.9807 0.60027 539.454 83.7201 517.974
lowerback 18.393 -0.271978 0.62065
upperback 4.23466 -0.0761979 -1.41968
thorax -5.74441 0.0588963 -1.86081
lowerneck -31.2525 10.7051 4.67257
upperneck 19.8028 16.726 -12.9836
head 13.4353 6.0046 -2.26415
rclavicle 7.00716e-015 2.62396e-014
rhumerus -12.4438 10.4912 -78.7472
rradius 40.6245
rwrist -18.0483
rhand -13.2892 -32.0317
rfingers 7.12502
rthumb 12.8144 -61.6184
lclavicle 7.00716e-015 2.62396e-014
lhumerus -13.022 -30.2174 77.8697
lradius 67.6585
lwrist 12.0329
lhand -17.9254 343.211
lfingers 7.12502
lthumb 8.34232 13.0262
rfemur -35.9187 -14.2606 7.91445
rtibia 39.4366
rfoot -17.0706 -11.5082
rtoes -14.7145
lfemur -46.7696 12.4102 -12.8984
ltibia 34.3943
lfoot -5.15118 10.5213
ltoes -13.9801
660
root -17.8245 15.9993 0.448155 543.208 83.6802 521.747
lowerback 18.4915 -0.269876 0.433921
upperback 3.92453 -0.135333 -1.52544
thorax -6.13157 0.0213 -1.85658
lowerneck -31.1578 10.6424 4.69864
upperneck 20.2028 16.5624 -12.5833
head 13.5147 5.96621 -2.15979
rclavicle 1.83627e-014 -3.04638e-014
rhumerus -13.5269 8.69077 -79.0963
rradius 41.8896
rwrist -19.8661
rhand -13.2984 -32.6702
rfingers 7.12502
rthumb 12.8055 -62.2575
lclavicle 1.83627e-014 -3.04638e-014
lhumerus -13.2965 -27.5561 78.4496
lradius 67.5269
lwrist 12.3909
lhand -18.3798 343.568
lfingers 7.12502
lthumb 7.90378 13.4007
rfemur -35.0435 -14.1027 7.69058
rtibia 38.6622
rfoot -16.6483 -11.8792
rtoes -15.2596
lfemur -47.0682 12.8008 -13.3121
ltibia 35.368
lfoot -5.33457 10.0055
ltoes -12.4941
661
root -17.7507 16.0201 0.299389 547.972 83.6355 526.624
lowerback 18.5122 -0.22952 0.154953
upperback 3.77771 -0.139896 -1.44033
thorax -6.29947 0.0189856 -1.6064
lowerneck -31.055 10.4796 4.53597
upperneck 20.3959 16.3667 -12.3524
head 13.5122 5.89293 -2.09709
rclavicle 8.15017e-015 -1.04362e-014
rhumerus -14.5099 7.27488 -79.3036
rradius 43.1893
rwrist -21.8456
rhand -13.0207 -33.1843
rfingers 7.12502
rthumb 13.0732 -62.7545
lclavicle 8.15017e-015 -1.04362e-014
lhumerus -13.3204 -24.7344 79.2086
lradius 67.3835
lwrist 12.9014
lhand -19.69 343.912
lfingers 7.12502
lthumb 6.63913 13.7877
rfemur -34.1237 -13.6703 7.58597
rtibia 38.0159
rfoot -16.1218 -12.5052
rtoes -14.3635
lfemur -47.2009 13.0946 -13.4755
ltibia 36.2404
lfoot -5.8045 9.56133
ltoes -11.6738
662
root -17.688 16.0274 0.155553 552.998 83.933 531.265
lowerback 17.8741 -0.00959491 -0.320848
upperback 3.66321 0.053407 -1.34797
thorax -6.07427 0.11517 -1.27663
lowerneck -31.2764 10.2053 4.15762
upperneck 20.6682 16.1145 -12.1063
head 13.578 5.76147 -1.9998
rclavicle -3.1408e-014 -1.80894e-014
rhumerus -15.2519 6.05542 -79.4352
rradius 44.4067
rwrist -23.8011
rhand -12.9932 -33.8401
rfingers 7.12502
rthumb 13.0998 -63.4087
lclavicle -3.1408e-014 -1.80894e-014
lhumerus -13.1112 -22.0223 79.9593
lradius 67.3241
lwrist 13.2062
lhand -21.6678 344.568
lfingers 7.12502
lthumb 4.72958 14.4947
rfemur -34.1822 -13.181 7.66477
rtibia 37.5363
rfoot -14.9921 -13.2117
rtoes -13.7127
lfemur -47.8592 13.5701 -13.6734
ltibia 37.0426
lfoot -6.37614 9.24418
ltoes -11.332
